Coordinates
version=1
nRows=6
nColumns=36
inDegrees=yes

Units are S.I. units (second, meters, Newtons, ...)
If the header above contains a line with 'inDegrees', this indicates whether rotational values are in degrees (yes) or radians (no).

endheader
time	pelvis_tilt	pelvis_list	pelvis_rotation	pelvis_tx	pelvis_ty	pelvis_tz	hip_flexion_r	hip_adduction_r	hip_rotation_r	knee_angle_r	knee_angle_r_beta	ankle_angle_r	subtalar_angle_r	mtp_angle_r	hip_flexion_l	hip_adduction_l	hip_rotation_l	knee_angle_l	knee_angle_l_beta	ankle_angle_l	subtalar_angle_l	mtp_angle_l	lumbar_extension	lumbar_bending	lumbar_rotation	arm_flex_r	arm_add_r	arm_rot_r	elbow_flex_r	pro_sup_r	arm_flex_l	arm_add_l	arm_rot_l	elbow_flex_l	pro_sup_l
      3.75000000	     -9.00395579	     -3.40520091	      8.58462939	      1.25413754	      0.96614992	     -0.03856561	     10.80773063	     -2.42003625	      0.55180691	      3.71458826	      0.06483180	      8.54553640	    -10.27100098	     -7.49999987	     12.64461092	     -5.43232421	      1.07077217	      6.62591043	      0.11564395	      2.45027807	    -15.48473629	     -7.49999987	     -1.29807357	      1.79854023	      2.05757507	    -11.11729750	    -12.34585813	      8.13833373	     27.75526350	     81.07030247	     -7.84335880	     -8.75279835	      5.63331847	     35.25354248	     82.18767222
      3.76666670	     -8.32611266	     -3.38320690	      8.97563792	      1.26601745	      0.96347750	     -0.04029651	      9.45174460	     -2.33010208	      0.69199819	      3.32012741	      0.05794715	      8.60644545	    -10.80819703	     -7.49999987	     11.74159134	     -5.51361572	      1.53584131	      6.82117421	      0.11905195	      2.93122417	    -15.38740911	     -7.49999987	     -0.41201551	      1.91825516	      2.36958439	    -13.11676398	    -11.95819512	      7.78411718	     26.27624050	     80.42036403	     -8.22883324	     -8.48395176	      5.00646475	     32.48442193	     82.04643823
      3.78333330	     -7.75640092	     -3.36053838	      8.91060542	      1.26374759	      0.96873422	     -0.03412799	      8.60089814	     -2.11996409	      1.04020780	      3.27769702	      0.05720660	      8.95552959	    -11.30256465	     -7.49999987	     11.07825808	     -5.71840319	      1.49839569	      7.14702931	      0.12473919	      3.32862046	    -15.41482341	     -7.49999987	      0.21374522	      2.00856572	      2.74397089	    -14.26212108	    -11.52465481	      7.18927234	     25.07426817	     79.37654037	     -7.72891518	     -8.40409094	      4.36599765	     29.27595876	     81.82744969
      3.80000000	     -7.28766457	     -3.31923939	      8.80745464	      1.26344300	      0.97852603	     -0.03377702	      7.78762522	     -1.91981991	      1.66248320	      2.98031066	      0.05201623	      8.60760991	    -12.10512871	     -7.49999987	     10.49459148	     -5.88338526	      1.33438691	      7.41278650	      0.12937753	      3.58657196	    -15.00605769	     -7.49999987	      0.84565619	      2.07374926	      2.90858544	    -15.27465124	    -10.79231019	      7.20741696	     24.06955247	     76.35246247	     -7.23237935	     -8.57615099	      4.93009428	     27.20881964	     79.91282041
      3.81666670	     -6.69131619	     -3.19084384	      8.63182888	      1.27054219	      0.98026938	     -0.03486339	      6.76108542	     -1.83707029	      1.57096355	      2.65060206	      0.04626173	      8.91622049	    -11.27881522	     -7.49999987	      9.55812904	     -5.95423319	      1.24069527	      7.44015468	      0.12985520	      3.55532702	    -15.06298664	     -7.49999987	      1.10893349	      2.00419372	      2.97216781	    -16.47468476	    -10.51896019	      7.06877929	     23.68089981	     75.74972683	     -7.05097859	     -8.72578157	      4.71593315	     25.96180276	     79.75299876
      3.83333330	     -6.25619522	     -3.08688207	      8.31896396	      1.27516508	      0.97334376	     -0.03656815	      5.94973985	     -1.79107217	      1.87839825	      2.37907864	      0.04152276	      9.04119915	    -11.17673260	     -7.49999987	      8.75974735	     -5.99797543	      0.87948694	      7.47647498	      0.13048910	      3.93529846	    -14.87205987	     -7.49999987	      1.47480293	      1.96499504	      3.08650090	    -17.99366584	    -10.50808197	      6.78465566	     24.40692014	     73.85686592	     -7.41206429	     -8.81613218	      4.20624440	     25.97724966	     77.66035363
